# ProBuilder 4.4.0
# https://unity3d.com/unity/features/worldbuilding/probuilder
# 20.2.2021 Ğ³. 17:04:48

mtllib ./Ground.mtl
o Ground

g Ground
v -4 0 7.999901
v 0 0 7.999901
v -4 4 7.999901
v 0 4 7.999901
v 0 0 4.0001
v -4 0 4.0001
v 0 0 8.0001
v -4 0 8.0001
v 0 4 4.0001
v 0 4 8.0001
v -4 4 4.0001
v -4 4 8.0001
v 0 0 12.0001
v -4 0 12.0001
v 0 4 12.0001
v -4 4 12.0001
v 0 0 16.0001
v -4 0 16.0001
v 0 4 16.0001
v -4 4 16.0001
v -4 0 3.9999
v 0 0 3.9999
v -3.9999 4 3.999901
v -3.9999 0 3.999901
v -3.9999 4 7.999899
v -3.9999 0 7.999899
v 0 4 3.9999
v -4 4 3.9999
v -12.0001 0 4
v -12.0001 4 4
v -12.0001 0 7.999901
v -12.0001 4 7.999901
v -4 0 15.9999
v 0 0 15.9999
v -4 4 15.9999
v 0 4 15.9999
v -8 0 4
v -8 4 4
v -8 0 7.999901
v -8 4 7.999901
v -4.0001 4 44.0001
v -4.0001 0 44.0001
v -8 4 44.0001
v -8 0 44.0001
v -8 4 52.0001
v -8 0 52.0001
v -12.0001 4 52.0001
v -12.0001 0 52.0001
v -8 4 12.0002
v -8 0 12.0002
v -12.0001 4 12.0002
v -12.0001 0 12.0002
v -8 4 15.9999
v -8 0 15.9999
v -12.0001 4 15.9999
v -12.0001 0 15.9999
v -3.9999 0 15.9999
v -3.9999 4 15.9999
v -3.9999 0 12
v -3.9999 4 12
v -3.9999 0 48.0001
v -3.9999 4 48.0001
v 0 0 48.0001
v 0 4 48.0001
v -3.9999 0 20.0002
v -3.9999 4 20.0002
v 0 0 20.0002
v 0 4 20.0002
v -4.0001 4 20.0002
v -4.0001 0 20.0002
v -8 4 20.0002
v -8 0 20.0002
v -12.0001 4 20.0002
v -12.0001 0 20.0002
v -3.9999 0 23.9999
v -3.9999 4 23.9999
v 0 0 23.9999
v 0 4 23.9999
v 4.0001 4 20.0002
v 4.0001 0 20.0002
v 4.0001 4 23.9999
v 4.0001 0 23.9999
v -4.0001 4 23.9999
v -4.0001 0 23.9999
v -8 4 23.9999
v -8 0 23.9999
v -12.0001 4 23.9999
v -12.0001 0 23.9999
v -16.0001 0 20.0002
v -16.0001 4 20.0002
v -16.0001 0 23.9999
v -16.0001 4 23.9999
v -3.9999 0 28.0002
v -3.9999 4 28.0002
v 0 0 28.0002
v 0 4 28.0002
v 4.0001 4 28.0002
v 4.0001 0 28.0002
v -4.0001 4 28.0002
v -4.0001 0 28.0002
v -8 4 28.0002
v -8 0 28.0002
v -12.0001 4 28.0002
v -12.0001 0 28.0002
v -16.0001 0 28.0002
v -16.0001 4 28.0002
v -12.0001 4 32.0001
v -8 4 32.0001
v -8 0 32.0001
v -12.0001 0 32.0001
v -16.0001 0 32.0001
v -16.0001 4 32.0001
v -4.0001 4 32.0001
v -4.0001 0 32.0001
v -3.9999 0 32.0001
v -3.9999 4 32.0001
v 0 0 32.0001
v 0 4 32.0001
v 4.0001 4 32.0001
v 4.0001 0 32.0001
v -12.0001 4 36.0001
v -8 4 36.0001
v -8 0 36.0001
v -12.0001 0 36.0001
v -16.0001 0 36.0001
v -16.0001 4 36.0001
v -4.0001 4 36.0001
v -4.0001 0 36.0001
v -3.9999 0 36.0001
v -3.9999 4 36.0001
v 0 0 36.0001
v 0 4 36.0001
v 4.0001 4 36.0001
v 4.0001 0 36.0001
v -12.0001 4 40.0001
v -8 4 40.0001
v -8 0 40.0001
v -12.0001 0 40.0001
v -16.0001 0 40.0001
v -16.0001 4 40.0001
v -4.0001 4 40.0001
v -4.0001 0 40.0001
v -3.9999 0 40.0001
v -3.9999 4 40.0001
v 0 0 40.0001
v 0 4 40.0001
v 4.0001 4 40.0001
v 4.0001 0 40.0001
v -12.0001 4 44.0001
v -12.0001 0 44.0001
v -3.9999 0 44.0001
v -3.9999 4 44.0001
v 0 0 44.0001
v 0 4 44.0001
v -8 0 48.0001
v -8 4 48.0001
v 0.0001001358 0 52.0001
v 0.0001001358 4 52.0001
v -12.0001 4 48.0001
v -12.0001 0 48.0001

vt 4 0
vt 0 0
vt 4 4
vt 0 4
vt -4 4.0001
vt 0 8.0001
vt -4 8.0001
vt -4.0001 0
vt -8.0001 4
vt -8.0001 0
vt 4 8.0001
vt 0 12.0001
vt -4 12.0001
vt -12.0001 4
vt -12.0001 0
vt 4 12.0001
vt 0 16.0001
vt -4 16.0001
vt -16.0001 4
vt -16.0001 0
vt 4 16.0001
vt 4 3.9999
vt 0 3.9999
vt 4 7.999899
vt 0 7.999899
vt -3.999901 4
vt -3.999901 0
vt -7.999899 4
vt -7.999899 0
vt 3.9999 0
vt 3.9999 4
vt 7.999899 0
vt 7.999899 4
vt -4 3.9999
vt -4 7.999899
vt 3.961634 4
vt 3.961634 0
vt 3.9999 7.999899
vt 3.9999 3.999901
vt -3.9999 3.999901
vt -3.9999 7.999899
vt 12 0
vt 12 4
vt 4 15.9999
vt 0 15.9999
vt -15.9999 4
vt -15.9999 0
vt 15.9999 0
vt 15.9999 4
vt -4 15.9999
vt 8 0
vt 8 4
vt -8 7.999901
vt 8 7.999901
vt -12.0001 7.999901
vt 12.0001 7.999901
vt 8 12.0002
vt -8 12.0002
vt 12.0001 12.0002
vt -12.0001 12.0002
vt 8 15.9999
vt -8 15.9999
vt 12.0001 15.9999
vt -12.0001 15.9999
vt 3.9999 12
vt 3.9999 15.9999
vt -3.9999 15.9999
vt -3.9999 12
vt 20.0002 0
vt 20.0002 4
vt 0 20.0002
vt -3.9999 20.0002
vt 3.9999 20.0002
vt -20.0002 4
vt -20.0002 0
vt 8 20.0002
vt 4.0001 20.0002
vt -4.0001 20.0002
vt -8 20.0002
vt 12.0001 20.0002
vt -12.0001 20.0002
vt 23.9999 0
vt 23.9999 4
vt 0 23.9999
vt -3.9999 23.9999
vt 3.9999 23.9999
vt -23.9999 4
vt -23.9999 0
vt 8 23.9999
vt 4.0001 23.9999
vt -4.0001 23.9999
vt -8 23.9999
vt 12.0001 23.9999
vt -12.0001 23.9999
vt 28.0002 0
vt 28.0002 4
vt 0 28.0002
vt -3.9999 28.0002
vt 3.9999 28.0002
vt -28.0002 4
vt -28.0002 0
vt 8 28.0002
vt 4.0001 28.0002
vt -4.0001 28.0002
vt -8 28.0002
vt 12.0001 28.0002
vt -12.0001 28.0002
vt 12.0001 32.0001
vt 8 32.0001
vt -8 32.0001
vt -12.0001 32.0001
vt 32.0001 0
vt 32.0001 4
vt -32.0001 4
vt -32.0001 0
vt 4.0001 32.0001
vt -4.0001 32.0001
vt 0 32.0001
vt -3.9999 32.0001
vt 3.9999 32.0001
vt 12.0001 36.0001
vt 8 36.0001
vt -8 36.0001
vt -12.0001 36.0001
vt 36.0001 0
vt 36.0001 4
vt -36.0001 4
vt -36.0001 0
vt 4.0001 36.0001
vt -4.0001 36.0001
vt 0 36.0001
vt -3.9999 36.0001
vt 3.9999 36.0001
vt 12.0001 40.0001
vt 8 40.0001
vt -8 40.0001
vt -12.0001 40.0001
vt 40.0001 0
vt 40.0001 4
vt -40.0001 4
vt -40.0001 0
vt 4.0001 40.0001
vt -4.0001 40.0001
vt 0 40.0001
vt -3.9999 40.0001
vt 3.9999 40.0001
vt 12.0001 44.0001
vt 8 44.0001
vt -8 44.0001
vt -12.0001 44.0001
vt 44.0001 0
vt 44.0001 4
vt -44.0001 4
vt -44.0001 0
vt 4.0001 44.0001
vt -4.0001 44.0001
vt 0 44.0001
vt -3.9999 44.0001
vt 3.9999 44.0001
vt -16.0001 28.0002
vt -16.0001 23.9999
vt 16.0001 23.9999
vt 16.0001 28.0002
vt 16.0001 0
vt 16.0001 4
vt -16.0001 20.0002
vt 16.0001 20.0002
vt -16.0001 32.0001
vt 16.0001 32.0001
vt -16.0001 36.0001
vt 16.0001 36.0001
vt -16.0001 40.0001
vt 16.0001 40.0001
vt -48.0001 0
vt -48.0001 4
vt -52.0001 0
vt -52.0001 4
vt 8 48.0001
vt 12.0001 48.0001
vt 8 52.0001
vt 12.0001 52.0001
vt -12.0001 48.0001
vt -8 48.0001
vt -12.0001 52.0001
vt -8 52.0001
vt 48.0001 4
vt 48.0001 0
vt 52.0001 4
vt 52.0001 0
vt -0.0001001358 52.0001
vt -0.0001001358 48.0001
vt -3.9999 48.0001
vt 3.9999 48.0001

vn 0 0 -1
vn 0 -1 0
vn 1 0 0
vn 0 1 0
vn -1 0 0
vn 0.009546105 0 -0.9999545
vn 0 0 1

usemtl Ground
f 3/3/1 4/4/1 2/2/1 1/1/1
f 7/6/2 8/7/2 6/5/2 5/4/2
f 10/9/3 7/10/3 5/8/3 9/5/3
f 12/11/4 10/6/4 9/4/4 11/3/4
f 13/12/2 14/13/2 8/7/2 7/6/2
f 15/14/3 13/15/3 7/10/3 10/9/3
f 16/16/4 15/12/4 10/6/4 12/11/4
f 17/17/2 18/18/2 14/13/2 13/12/2
f 19/19/3 17/20/3 13/15/3 15/14/3
f 20/21/4 19/17/4 15/12/4 16/16/4
f 1/24/4 2/25/4 22/23/4 21/22/4
f 25/28/3 26/29/3 24/27/3 23/26/3
f 2/32/5 4/33/5 27/31/5 22/30/5
f 4/25/2 3/35/2 28/34/2 27/23/2
f 23/36/6 24/37/6 21/37/6 28/36/6
f 25/38/4 23/39/4 28/22/4 3/24/4
f 24/40/2 26/41/2 1/35/2 21/34/2
f 26/27/7 25/26/7 3/5/7 1/8/7
f 6/5/2 5/4/2 2/25/2 1/35/2
f 11/3/5 6/1/5 1/32/5 3/33/5
f 5/8/3 9/5/3 4/28/3 2/29/3
f 9/4/4 11/3/4 3/24/4 4/25/4
f 1/24/4 2/25/4 5/4/4 6/3/4
f 3/28/3 1/29/3 6/8/3 11/5/3
f 31/32/5 32/33/5 30/3/5 29/1/5
f 4/25/2 3/35/2 11/5/2 9/4/2
f 14/16/4 13/12/4 2/25/4 1/24/4
f 16/14/3 14/15/3 1/29/3 3/28/3
f 13/42/5 15/43/5 4/33/5 2/32/5
f 15/12/2 16/13/2 3/35/2 4/25/2
f 33/44/4 34/45/4 13/12/4 14/16/4
f 35/46/3 33/47/3 14/15/3 16/14/3
f 34/48/5 36/49/5 15/43/5 13/42/5
f 36/45/2 35/50/2 16/13/2 15/12/2
f 14/13/2 13/12/2 34/45/2 33/50/2
f 16/43/5 14/42/5 33/48/5 35/49/5
f 13/15/3 15/14/3 36/46/3 34/47/3
f 15/12/4 16/16/4 35/44/4 36/45/4
f 1/35/2 2/25/2 13/12/2 14/13/2
f 3/33/5 1/32/5 14/42/5 16/43/5
f 2/29/3 4/28/3 15/14/3 13/15/3
f 4/25/4 3/24/4 16/16/4 15/12/4
f 6/1/1 11/3/1 9/4/1 5/2/1
f 1/35/2 6/5/2 5/4/2 2/25/2
f 11/3/4 3/24/4 4/25/4 9/4/4
f 3/5/7 1/8/7 2/2/7 4/4/7
f 37/51/1 38/52/1 11/3/1 6/1/1
f 39/53/2 37/9/2 6/5/2 1/35/2
f 38/52/4 40/54/4 3/24/4 11/3/4
f 43/9/7 44/10/7 42/8/7 41/5/7
f 29/42/1 30/43/1 38/52/1 37/51/1
f 31/55/2 29/14/2 37/9/2 39/53/2
f 30/43/4 32/56/4 40/54/4 38/52/4
f 47/14/7 48/15/7 46/10/7 45/9/7
f 16/14/3 14/15/3 1/29/3 3/28/3
f 49/57/4 16/16/4 3/24/4 40/54/4
f 14/13/2 50/58/2 39/53/2 1/35/2
f 51/59/4 49/57/4 40/54/4 32/56/4
f 50/58/2 52/60/2 31/55/2 39/53/2
f 52/42/5 51/43/5 32/33/5 31/32/5
f 35/46/3 33/47/3 14/15/3 16/14/3
f 53/61/4 35/44/4 16/16/4 49/57/4
f 33/50/2 54/62/2 50/58/2 14/13/2
f 55/63/4 53/61/4 49/57/4 51/59/4
f 54/62/2 56/64/2 52/60/2 50/58/2
f 56/48/5 55/49/5 51/43/5 52/42/5
f 57/30/1 58/31/1 36/4/1 34/2/1
f 59/65/4 57/66/4 34/45/4 13/12/4
f 58/67/2 60/68/2 15/12/2 36/45/2
f 60/26/7 59/27/7 13/2/7 15/4/7
f 63/2/7 64/4/7 62/26/7 61/27/7
f 13/12/2 34/45/2 57/67/2 59/68/2
f 36/45/4 15/12/4 60/65/4 58/66/4
f 15/4/1 13/2/1 59/30/1 60/31/1
f 65/69/5 66/70/5 58/49/5 57/48/5
f 67/71/2 65/72/2 57/67/2 34/45/2
f 66/73/4 68/71/4 36/45/4 58/66/4
f 68/74/3 67/75/3 34/47/3 36/46/3
f 69/74/3 70/75/3 33/47/3 35/46/3
f 71/76/4 69/77/4 35/44/4 53/61/4
f 70/78/2 72/79/2 54/62/2 33/50/2
f 73/80/4 71/76/4 53/61/4 55/63/4
f 72/79/2 74/81/2 56/64/2 54/62/2
f 74/69/5 73/70/5 55/49/5 56/48/5
f 75/82/5 76/83/5 66/70/5 65/69/5
f 77/84/2 75/85/2 65/72/2 67/71/2
f 76/86/4 78/84/4 68/71/4 66/73/4
f 81/87/3 82/88/3 80/75/3 79/74/3
f 83/87/3 84/88/3 70/75/3 69/74/3
f 85/89/4 83/90/4 69/77/4 71/76/4
f 84/91/2 86/92/2 72/79/2 70/78/2
f 87/93/4 85/89/4 71/76/4 73/80/4
f 86/92/2 88/94/2 74/81/2 72/79/2
f 91/82/5 92/83/5 90/70/5 89/69/5
f 93/95/5 94/96/5 76/83/5 75/82/5
f 95/97/2 93/98/2 75/85/2 77/84/2
f 94/99/4 96/97/4 78/84/4 76/86/4
f 97/100/3 98/101/3 82/88/3 81/87/3
f 99/100/3 100/101/3 84/88/3 83/87/3
f 101/102/4 99/103/4 83/90/4 85/89/4
f 100/104/2 102/105/2 86/92/2 84/91/2
f 103/106/4 101/102/4 85/89/4 87/93/4
f 102/105/2 104/107/2 88/94/2 86/92/2
f 105/95/5 106/96/5 92/83/5 91/82/5
f 103/107/2 101/105/2 101/105/2 103/107/2
f 102/102/4 104/106/4 104/106/4 102/102/4
f 104/101/3 103/100/3 103/100/3 104/101/3
f 99/96/5 100/95/5 100/95/5 99/96/5
f 101/105/2 99/104/2 99/104/2 101/105/2
f 100/103/4 102/102/4 102/102/4 100/103/4
f 93/101/3 94/100/3 94/100/3 93/101/3
f 95/97/4 93/99/4 93/99/4 95/97/4
f 94/98/2 96/97/2 96/97/2 94/98/2
f 96/96/5 95/95/5 95/95/5 96/96/5
f 107/108/4 108/109/4 101/102/4 103/106/4
f 109/110/2 110/111/2 104/107/2 102/105/2
f 111/112/5 112/113/5 106/96/5 105/95/5
f 113/114/3 114/115/3 100/101/3 99/100/3
f 108/109/4 113/116/4 99/103/4 101/102/4
f 114/117/2 109/110/2 102/105/2 100/104/2
f 115/112/5 116/113/5 94/96/5 93/95/5
f 117/118/2 115/119/2 93/98/2 95/97/2
f 116/120/4 118/118/4 96/97/4 94/99/4
f 119/114/3 120/115/3 98/101/3 97/100/3
f 121/121/4 122/122/4 108/109/4 107/108/4
f 123/123/2 124/124/2 110/111/2 109/110/2
f 125/125/5 126/126/5 112/113/5 111/112/5
f 127/127/3 128/128/3 114/115/3 113/114/3
f 122/122/4 127/129/4 113/116/4 108/109/4
f 128/130/2 123/123/2 109/110/2 114/117/2
f 129/125/5 130/126/5 116/113/5 115/112/5
f 131/131/2 129/132/2 115/119/2 117/118/2
f 130/133/4 132/131/4 118/118/4 116/120/4
f 133/127/3 134/128/3 120/115/3 119/114/3
f 135/134/4 136/135/4 122/122/4 121/121/4
f 137/136/2 138/137/2 124/124/2 123/123/2
f 139/138/5 140/139/5 126/126/5 125/125/5
f 141/140/3 142/141/3 128/128/3 127/127/3
f 136/135/4 141/142/4 127/129/4 122/122/4
f 142/143/2 137/136/2 123/123/2 128/130/2
f 143/138/5 144/139/5 130/126/5 129/125/5
f 145/144/2 143/145/2 129/132/2 131/131/2
f 144/146/4 146/144/4 132/131/4 130/133/4
f 147/140/3 148/141/3 134/128/3 133/127/3
f 149/147/4 43/148/4 136/135/4 135/134/4
f 44/149/2 150/150/2 138/137/2 137/136/2
f 150/151/5 149/152/5 135/139/5 138/138/5
f 41/153/3 42/154/3 142/141/3 141/140/3
f 43/148/4 41/155/4 141/142/4 136/135/4
f 42/156/2 44/149/2 137/136/2 142/143/2
f 151/151/5 152/152/5 144/139/5 143/138/5
f 153/157/2 151/158/2 143/145/2 145/144/2
f 152/159/4 154/157/4 146/144/4 144/146/4
f 154/153/3 153/154/3 145/141/3 146/140/3
f 105/160/2 91/161/2 88/94/2 104/107/2
f 92/162/4 106/163/4 103/106/4 87/93/4
f 106/19/7 105/20/7 104/15/7 103/14/7
f 89/164/1 90/165/1 73/43/1 74/42/1
f 91/161/2 89/166/2 74/81/2 88/94/2
f 90/167/4 92/162/4 87/93/4 73/80/4
f 105/164/1 106/165/1 103/43/1 104/42/1
f 111/168/2 105/160/2 104/107/2 110/111/2
f 106/163/4 112/169/4 107/108/4 103/106/4
f 125/170/2 111/168/2 110/111/2 124/124/2
f 112/169/4 126/171/4 121/121/4 107/108/4
f 139/172/2 125/170/2 124/124/2 138/137/2
f 126/171/4 140/173/4 135/134/4 121/121/4
f 140/19/7 139/20/7 138/15/7 135/14/7
f 97/5/1 98/8/1 95/2/1 96/4/1
f 147/143/4 133/130/4 132/131/4 146/144/4
f 134/129/2 148/142/2 145/144/2 131/131/2
f 148/1/7 147/3/7 146/4/7 145/2/7
f 133/130/4 119/117/4 118/118/4 132/131/4
f 120/116/2 134/129/2 131/131/2 117/118/2
f 119/117/4 97/104/4 96/97/4 118/118/4
f 98/103/2 120/116/2 117/118/2 95/97/2
f 97/104/4 81/91/4 78/84/4 96/97/4
f 82/90/2 98/103/2 95/97/2 77/84/2
f 98/1/7 97/3/7 96/4/7 95/2/7
f 79/5/1 80/8/1 67/2/1 68/4/1
f 81/91/4 79/78/4 68/71/4 78/84/4
f 80/77/2 82/90/2 77/84/2 67/71/2
f 44/154/3 43/153/3 156/175/3 155/174/3
f 63/174/3 64/175/3 158/177/3 157/176/3
f 159/179/4 156/178/4 43/148/4 149/147/4
f 47/181/4 45/180/4 156/178/4 159/179/4
f 150/150/2 44/149/2 155/183/2 160/182/2
f 160/182/2 155/183/2 46/185/2 48/184/2
f 159/186/5 149/152/5 150/151/5 160/187/5
f 47/188/5 159/186/5 160/187/5 48/189/5
f 157/2/7 158/4/7 45/9/7 46/10/7
f 158/190/4 64/191/4 156/178/4 45/180/4
f 64/4/1 63/2/1 155/51/1 156/52/1
f 63/191/2 157/190/2 46/185/2 155/183/2
f 61/187/5 62/186/5 152/152/5 151/151/5
f 63/191/2 61/192/2 151/158/2 153/157/2
f 62/193/4 64/191/4 154/157/4 152/159/4
f 64/175/3 63/174/3 153/154/3 154/153/3

